<svg id="Layer_1" data-name="Layer 1" xmlns="http://www.w3.org/2000/svg" viewBox="0 0 587.81 277.06"><title>121®Lozenge_Top_NoBleed_RGB</title><path d="M0,0V246.8L554.88,277a31.22,31.22,0,0,0,32.75-34.45L562.22,0Z" fill="#2b2e6b"/><path d="M391.51,92.47v4.11c0,14.17-10.07,21.27-21.6,21.27H354.28a1,1,0,0,1-.93-.93V72a1,1,0,0,1,1-.93h15.56c13.06,0,21.6,8.47,21.6,21.39M362.23,78.36a.67.67,0,0,0-.66.67v30.86a.61.61,0,0,0,.59.67h7.75c8.22,0,13.32-5.3,13.32-14V92.47c0-8.61-5-14.11-13.32-14.11Z" fill="#fff"/><path d="M400.86,71.08h6.35a1,1,0,0,1,.93.93v44.91a1,1,0,0,1-.93.93h-6.35a1,1,0,0,1-.93-.93V72a1,1,0,0,1,.93-.93" fill="#fff"/><path d="M418.35,71.08h29.28a1,1,0,0,1,1,.93v5.42a1,1,0,0,1-1,.93h-21.4a.67.67,0,0,0-.66.67V90.62a.61.61,0,0,0,.66.6h15.3a1,1,0,0,1,1,1V97a1,1,0,0,1-1,.92h-15.3a.68.68,0,0,0-.66.73V109.9a.61.61,0,0,0,.6.66h21.46a1,1,0,0,1,1,.92v5.44a1,1,0,0,1-1,.93H418.28a1,1,0,0,1-.92-.93V72a1,1,0,0,1,1-.93" fill="#fff"/><path d="M457,71.08h33.19a1,1,0,0,1,.92.93v5.42a.94.94,0,0,1-.92.93H478.31a.73.73,0,0,0-.67.73v37.83a1,1,0,0,1-1,.93h-6.23a.9.9,0,0,1-.92-.93V79.09a.79.79,0,0,0-.73-.73H457a.92.92,0,0,1-1-.93V72a1,1,0,0,1,1-.93" fill="#fff"/><path d="M311,69h-3a2,2,0,0,1-1.69-3l7.13-11.88a2,2,0,0,1,1.7-.91h13.24a1.85,1.85,0,0,1,1.92,1.93v76.06a2,2,0,0,1-1.92,1.93H314.21a2,2,0,0,1-1.93-1.93V70.39A1.29,1.29,0,0,0,311,69" fill="#fff"/><path d="M236.62,69h-3a2,2,0,0,1-1.69-3l7.13-11.88a2,2,0,0,1,1.7-.91h13.24A1.85,1.85,0,0,1,256,55.22v76.06a2,2,0,0,1-1.92,1.93H239.79a2,2,0,0,1-1.93-1.93V70.39A1.29,1.29,0,0,0,236.62,69" fill="#fff"/><path d="M283.14,66.27a11.36,11.36,0,0,0-8.89,18.46,9.93,9.93,0,0,1-2.2,4.3.68.68,0,0,0-.09.8.71.71,0,0,0,.62.37h.11a18.05,18.05,0,0,0,6-2.1,11.23,11.23,0,0,0,4.49.94,11.38,11.38,0,0,0,0-22.76" fill="#fff"/><path d="M292,118.07a11.37,11.37,0,1,0-8.89,4.3,11.07,11.07,0,0,0,4.49-1,18.05,18.05,0,0,0,6,2.1h.11a.7.7,0,0,0,.62-.36.71.71,0,0,0-.09-.81,9.87,9.87,0,0,1-2.2-4.29" fill="#fff"/><path d="M90,71.08h33.19a1,1,0,0,1,.93.93v5.42a1,1,0,0,1-.93.93H111.33a.73.73,0,0,0-.66.73v37.83a1,1,0,0,1-1,.93h-6.24a.91.91,0,0,1-.92-.93V79.09a.79.79,0,0,0-.73-.73H90a.91.91,0,0,1-1-.93V72a1,1,0,0,1,1-.93" fill="#fff"/><path d="M132.93,71.08h6.23a1,1,0,0,1,1,.93V90.62a.6.6,0,0,0,.66.59h20.34a.66.66,0,0,0,.67-.59V72a1,1,0,0,1,1-.93H169A1,1,0,0,1,170,72v44.91a1,1,0,0,1-.93.93h-6.22a.92.92,0,0,1-1-.93V98.63a.74.74,0,0,0-.67-.73H140.81a.68.68,0,0,0-.66.73v18.29a1,1,0,0,1-.92.93h-6.3a1,1,0,0,1-1-.93V72a1,1,0,0,1,1-.93" fill="#fff"/><path d="M181.56,71.08h29.28a1,1,0,0,1,1,.93v5.42a1,1,0,0,1-1,.93h-21.4a.67.67,0,0,0-.66.67V90.62a.61.61,0,0,0,.66.59h15.31a1,1,0,0,1,1,1V97a1,1,0,0,1-1,.92H189.44a.69.69,0,0,0-.66.73V109.9a.62.62,0,0,0,.6.66h21.46a1,1,0,0,1,1,.92v5.44a1,1,0,0,1-1,.93H181.49a1,1,0,0,1-.92-.93V72a1,1,0,0,1,1-.93" fill="#fff"/><path d="M92.05,161.27H89.12v-1.82h5.15v8.07a8.93,8.93,0,0,1-.1,1.37h.06a6.08,6.08,0,0,1,5.61-3.32c4.39,0,7.13,3.52,7.13,8.6s-3.1,8.56-7.39,8.56a6,6,0,0,1-5.41-3.35H94.1a8.87,8.87,0,0,1,.1,1.36v1.6H92.05Zm7.36,19.47c2.9,0,5.31-2.41,5.31-6.57,0-4-2.15-6.58-5.21-6.58-2.74,0-5.31,1.95-5.31,6.61C94.2,177.49,95.93,180.74,99.41,180.74Z" fill="#dc6099"/><path d="M111.88,187.23c1.47,0,2.51-1.18,3.13-2.61l.91-2.18-5.86-14.66h-2.15V166h6.87v1.82H112.4L116.7,179a6.6,6.6,0,0,1,.26,1.18h.1a7.7,7.7,0,0,1,.33-1.18l4.3-11.17h-2.38V166h6.77v1.82h-2.15l-7,17.59c-.94,2.34-2.73,3.81-5,3.81a5.38,5.38,0,0,1-3.1-1l.85-1.76A3.78,3.78,0,0,0,111.88,187.23Z" fill="#dc6099"/><path d="M145.19,158.83c2.81,0,9,1,9,4.62v3.13h-3.88v-1.79c0-1.73-3.06-2.31-5-2.31-4.46,0-7.72,3.12-7.72,8,0,5.21,3.39,8.59,8,8.59,1.4,0,5-.45,5-2.28V175h3.88v3.16c0,3.45-6,4.56-9.15,4.56a11.81,11.81,0,0,1-12.08-12A11.62,11.62,0,0,1,145.19,158.83Z" fill="#dc6099"/><path d="M166.09,172.08h1v-.55c0-2.12-1.34-2.87-3.06-2.87a9.12,9.12,0,0,0-4.69,1.6l-1.53-2.87a11.29,11.29,0,0,1,6.58-2c4.46,0,6.83,2.31,6.83,6.55v6.64a.64.64,0,0,0,.72.72h1.5v3.09h-3.91c-1.53,0-2.12-.81-2.12-1.76v-.19a3.21,3.21,0,0,1,.1-.85h-.06a5.78,5.78,0,0,1-5.25,3.19c-2.83,0-5.5-1.66-5.5-5C156.74,172.6,163.42,172.08,166.09,172.08Zm-2.77,7.56c2.25,0,3.84-2.41,3.84-4.5v-.55h-.68c-1.63,0-5.57.26-5.57,2.77A2.24,2.24,0,0,0,163.32,179.64Z" fill="#dc6099"/><path d="M175.26,179.25h2.41v-9.74c0-.46-.26-.68-.72-.68H175.1v-3.1h4.33c1.46,0,2.18.69,2.18,1.86v.75a4.13,4.13,0,0,1-.07.71h.07a6.68,6.68,0,0,1,5.67-3.71A4.36,4.36,0,0,1,191.9,169H192a6.48,6.48,0,0,1,5.77-3.62c3.35,0,5.34,2,5.34,6.32v7.59h2.41v3.09h-6.55v-9.9c0-1.89-.36-3.32-2.28-3.32-2.83,0-4.23,2.83-4.23,5.89v4.24h2.41v3.09h-6.51v-9.9c0-1.79-.3-3.32-2.25-3.32-2.93,0-4.27,3.09-4.27,6.09v4h2.38v3.09h-8.92Z" fill="#dc6099"/><path d="M207.87,162.31h-2.54v-3.09H212v7.2c0,.81-.06,1.4-.06,1.4H212a5.89,5.89,0,0,1,5-2.48c4.49,0,7.39,3.55,7.39,8.7s-3.26,8.69-7.66,8.69a5.51,5.51,0,0,1-4.95-2.64h-.06s.06.59.06,1.24v1h-3.9ZM216,179.25c2.28,0,4.2-1.86,4.2-5.15s-1.69-5.21-4.14-5.21c-2.15,0-4.16,1.56-4.16,5.24C211.91,176.71,213.24,179.25,216,179.25Z" fill="#dc6099"/><path d="M226.18,179.25h2.41v-9.71a.65.65,0,0,0-.72-.71H226v-3.1h4.33c1.46,0,2.21.62,2.21,2v1a8.13,8.13,0,0,1-.06,1h.06a5.72,5.72,0,0,1,5.28-4.27,4.45,4.45,0,0,1,.75.07v4.07a8.1,8.1,0,0,0-1-.06c-3.36,0-4.85,2.93-4.85,6v3.62h2.37v3.09h-8.92Z" fill="#dc6099"/><path d="M240.38,179.25h2.41V168.83h-2.57v-3.1h6.71v13.52h2.37v3.09h-8.92Zm2.38-20h4.17v3.68h-4.17Z" fill="#dc6099"/><path d="M258.12,165.34a5.28,5.28,0,0,1,4.79,2.35H263a9.23,9.23,0,0,1-.07-1.18v-4.2h-2.57v-3.09H267v19.31a.64.64,0,0,0,.72.72h1.5v3.09h-3.91c-1.5,0-2.12-.81-2.12-1.76v-.19a2.51,2.51,0,0,1,.1-.75h-.06a5.75,5.75,0,0,1-5.44,3.09c-4.43,0-7.26-3.55-7.26-8.69S253.63,165.34,258.12,165.34Zm.69,13.91c2.18,0,4.2-1.57,4.2-5.12,0-2.7-1.34-5.24-4.07-5.24-2.35,0-4.24,1.86-4.24,5.15S256.4,179.25,258.81,179.25Z" fill="#dc6099"/><path d="M277.92,185.79c2.54,0,4.69-1.11,4.69-4.17v-1a8.71,8.71,0,0,1,.06-.88h-.06A5.11,5.11,0,0,1,278,182c-4.78,0-7.45-3.84-7.45-8.4s2.57-8.27,7.36-8.27c2,0,4.23.75,5.14,2.51h.07a2.08,2.08,0,0,1-.07-.55c0-.88.59-1.57,1.89-1.57h4.14v3.1h-1.6a.63.63,0,0,0-.72.65v11.85c0,5.7-4.42,7.85-8.76,7.85a13.57,13.57,0,0,1-5.92-1.43l1.27-3.07A10.69,10.69,0,0,0,277.92,185.79Zm4.79-12.14c0-3.78-1.89-4.79-4.11-4.79-2.5,0-3.9,1.82-3.9,4.62s1.49,5.05,4.16,5.05C280.82,178.53,282.71,177.39,282.71,173.65Z" fill="#dc6099"/><path d="M298.74,165.34c4.79,0,7.39,3.49,7.39,7.88,0,.49-.09,1.4-.09,1.4h-11.5a4.79,4.79,0,0,0,5,4.63,8.36,8.36,0,0,0,4.82-1.76l1.6,2.93a10.58,10.58,0,0,1-6.71,2.31,8.51,8.51,0,0,1-8.92-8.69C290.31,168.92,293.76,165.34,298.74,165.34Zm3.13,6.84c-.07-2.28-1.47-3.65-3.23-3.65a4,4,0,0,0-4,3.65Z" fill="#dc6099"/><path d="M313.07,159.45h7.39v1.89h-2.73l4.1,16.83a13.6,13.6,0,0,1,.23,1.5h.13a13.54,13.54,0,0,1,.29-1.5l5.24-18.72h2.12l5.28,18.72a13.54,13.54,0,0,1,.29,1.5h.13a11.31,11.31,0,0,1,.23-1.5l4.1-16.83h-2.74v-1.89h7.4v1.89h-2.35l-5.31,21h-2.7l-5.05-18a9.58,9.58,0,0,1-.26-1.5h-.13a8.42,8.42,0,0,1-.26,1.5l-5.08,18h-2.67l-5.34-21h-2.31Z" fill="#dc6099"/><path d="M352.5,165.57c4.53,0,6.87,3.48,6.87,7.55a9,9,0,0,1-.1,1H346.7c.1,4.2,3,6.57,6.35,6.57a7.7,7.7,0,0,0,5-2l1,1.66a9.3,9.3,0,0,1-6.06,2.28,8.28,8.28,0,0,1-8.57-8.56C344.42,168.79,348.07,165.57,352.5,165.57Zm4.56,7c-.13-3.45-2.22-5.11-4.62-5.11a5.62,5.62,0,0,0-5.64,5.11Z" fill="#dc6099"/><path d="M361.65,180.52h2.76V167.78h-2.93V166h5.15v14.56h2.77v1.82h-7.75Zm2.63-21.07h2.51v2.77h-2.51Z" fill="#dc6099"/><path d="M377.59,187.23c3.19,0,5.73-1.5,5.73-5.18v-1.63a7.36,7.36,0,0,1,.1-1.17h-.07a5.53,5.53,0,0,1-5.21,3c-4.39,0-7.29-3.48-7.29-8.4s2.7-8.27,7.1-8.27c2.31,0,4.62.88,5.5,2.9h.07a2.75,2.75,0,0,1-.07-.72c0-1.2.49-1.79,1.89-1.79h2.93v1.82h-2a.64.64,0,0,0-.72.69V182c0,5.21-3.84,7.23-7.88,7.23a12.06,12.06,0,0,1-5.34-1.3l.85-1.79A10.06,10.06,0,0,0,377.59,187.23Zm5.76-13.39c0-4.79-2.28-6.28-5.17-6.28-3.2,0-5.05,2.34-5.05,6.25s2.11,6.45,5.34,6.45C381.07,180.26,383.35,178.66,383.35,173.84Z" fill="#dc6099"/><path d="M388.79,180.52h2.77V161.27h-2.93v-1.82h5.14v9a6.88,6.88,0,0,1-.13,1.33h.07a7.29,7.29,0,0,1,6.58-4.2c4,0,5.47,2.31,5.47,6.35v8.6h2.8v1.82h-5v-9.83c0-2.58-.39-4.86-3.55-4.86-3.51,0-6.22,2.93-6.22,6.84v6h2.77v1.82h-7.75Z" fill="#dc6099"/><path d="M411.27,167.78h-2.94V166h3v-4.53h2.18V166h4.13v1.82h-4.13v8.41c0,3.84,2.44,4.36,3.71,4.36a3.52,3.52,0,0,0,.75-.07v1.93a6.84,6.84,0,0,1-.94.06c-1.89,0-5.73-.62-5.73-6.09Z" fill="#dc6099"/><path d="M426.35,180.45h3V161.34h-3v-1.89h10.42a9.32,9.32,0,0,1,3.91.65,7.13,7.13,0,0,1-.49,12.73,10.32,10.32,0,0,1-3.38.46h-5.18v7.16h3v1.89h-8.28Zm10.23-9.12a7.28,7.28,0,0,0,2.77-.45,5.2,5.2,0,0,0,.32-8.93,8,8,0,0,0-3.09-.55h-4.95v9.93Z" fill="#dc6099"/><path d="M448.13,161.27h-2.9v-1.82h5.11v18.62c0,1.34.36,2.45,1.86,2.45a4.85,4.85,0,0,0,.91-.07v1.89a9.07,9.07,0,0,1-1.27.1c-2.15,0-3.71-1.08-3.71-4.2Z" fill="#dc6099"/><path d="M464.75,172.31h1.08v-.68c0-3.06-1.66-4.14-3.94-4.14a8.28,8.28,0,0,0-4.76,1.6l-1-1.66a9.74,9.74,0,0,1,5.93-1.86c4,0,6,2.12,6,6.15v8.08a.64.64,0,0,0,.72.72h1.79v1.82h-2.67c-1.4,0-2-.62-2-1.79v-.29A6.87,6.87,0,0,1,466,179H466a6.08,6.08,0,0,1-5.6,3.74c-2.67,0-5.47-1.53-5.47-4.88C454.89,172.54,462,172.31,464.75,172.31Zm-4.07,8.6c3.29,0,5.15-3.29,5.15-6.16V174h-.95c-1.33,0-7.72-.13-7.72,3.65A3.28,3.28,0,0,0,460.68,180.91Z" fill="#dc6099"/><path d="M472.72,180.52h2.76v-12a.64.64,0,0,0-.71-.72h-2.22V166h3.13c1.37,0,2,.59,2,1.82v.95a5.36,5.36,0,0,1-.13,1.17h.06a7.25,7.25,0,0,1,6.68-4.33c4,0,5.43,2.31,5.43,6.35v8.6h2.77v1.82h-5v-9.83c0-2.58-.42-4.86-3.58-4.86-3.62,0-6.22,3.2-6.22,6.81v6.06h2.77v1.82h-7.75Z" fill="#dc6099"/><path d="M490.33,161.43a3.27,3.27,0,0,1,3-1.93,3.27,3.27,0,0,1,2.26.92,3.44,3.44,0,0,1,.7,1,3.12,3.12,0,0,1,.25,1.26,3.19,3.19,0,0,1-.25,1.29,3.49,3.49,0,0,1-.7,1,3.07,3.07,0,0,1-1,.67,3.22,3.22,0,0,1-1.24.24,3.27,3.27,0,0,1-1.25-.24,3.11,3.11,0,0,1-1-.67,3.15,3.15,0,0,1-.7-1,3.2,3.2,0,0,1-.26-1.29A3.12,3.12,0,0,1,490.33,161.43Zm.53,2.36a2.8,2.8,0,0,0,.55.87,2.58,2.58,0,0,0,.84.58,2.67,2.67,0,0,0,1.06.21,2.53,2.53,0,0,0,1-.21,2.58,2.58,0,0,0,.84-.58,2.82,2.82,0,0,0,.56-.87,3,3,0,0,0,.2-1.1,2.91,2.91,0,0,0-.2-1.07,2.67,2.67,0,0,0-.56-.86,2.74,2.74,0,0,0-.84-.58,2.53,2.53,0,0,0-1-.21,2.67,2.67,0,0,0-1.06.21,2.74,2.74,0,0,0-.84.58,2.64,2.64,0,0,0-.55.86,2.72,2.72,0,0,0-.21,1.07A2.84,2.84,0,0,0,490.86,163.79Zm2.64-3a1.5,1.5,0,0,1,1,.27,1,1,0,0,1,.33.81.92.92,0,0,1-.29.74,1.26,1.26,0,0,1-.7.28l1.07,1.65h-.62l-1-1.61h-.61v1.61h-.59v-3.75Zm-.25,1.67.37,0a.74.74,0,0,0,.31-.07.49.49,0,0,0,.22-.18.61.61,0,0,0,.08-.35.51.51,0,0,0-.07-.3.44.44,0,0,0-.19-.17.71.71,0,0,0-.27-.08,1.43,1.43,0,0,0-.29,0h-.77v1.2Z" fill="#dc6099"/></svg>